<?xml version="1.0" standalone="no"?>
<!DOCTYPE svg PUBLIC "-//W3C//DTD SVG 20010904//EN"
 "http://www.w3.org/TR/2001/REC-SVG-20010904/DTD/svg10.dtd">
<svg version="1.0" xmlns="http://www.w3.org/2000/svg"
 width="512.000000pt" height="512.000000pt" viewBox="0 0 512.000000 512.000000"
 preserveAspectRatio="xMidYMid meet">

<g transform="translate(0.000000,512.000000) scale(0.100000,-0.100000)"
fill="#000000" stroke="none">
<path d="M3972 5109 c-336 -32 -639 -229 -807 -525 -123 -216 -166 -487 -114
-724 11 -52 21 -104 22 -114 2 -16 -55 -56 -258 -183 -143 -90 -290 -181 -327
-204 l-67 -40 -118 118 c-128 129 -220 197 -358 266 -205 102 -366 140 -595
140 -382 1 -703 -134 -968 -407 -235 -243 -362 -532 -378 -866 -19 -382 120
-742 392 -1014 539 -539 1402 -523 1929 36 l90 95 315 -198 315 -198 -2 -33
c-14 -204 -14 -300 1 -384 48 -280 213 -534 449 -693 75 -51 224 -118 312
-141 601 -154 1201 236 1300 845 49 301 -34 597 -238 845 -149 182 -427 333
-654 356 l-63 7 0 63 c0 75 -13 109 -49 124 -33 13 -75 0 -90 -29 -6 -11 -11
-51 -11 -89 l0 -69 -65 -7 c-77 -8 -206 -44 -290 -81 -212 -94 -430 -309 -516
-510 -13 -30 -27 -55 -31 -55 -8 0 -568 348 -586 365 -10 9 -4 29 33 103 97
197 138 372 138 597 0 222 -42 403 -137 593 l-46 91 322 201 c186 117 324 197
326 190 2 -6 27 -46 55 -88 63 -94 190 -224 276 -282 140 -94 315 -162 456
-176 l65 -7 0 -69 c0 -38 5 -78 11 -89 15 -29 57 -42 90 -29 36 15 49 49 49
124 l0 63 63 7 c228 23 505 175 656 358 202 245 285 543 236 843 -88 545 -584
927 -1133 874z m343 -178 c348 -104 596 -392 645 -751 21 -148 -4 -316 -68
-468 -32 -77 -107 -194 -151 -236 l-28 -27 -25 78 c-22 67 -23 81 -12 98 44
65 90 157 112 223 23 69 26 93 26 222 0 129 -3 153 -26 222 -128 383 -516 599
-903 502 -200 -50 -396 -212 -486 -401 -110 -230 -91 -523 48 -731 l38 -57
-26 -78 -27 -79 -43 51 c-167 193 -239 465 -194 726 30 172 104 319 224 447
136 145 282 229 476 274 90 21 328 12 420 -15z m-92 -301 c134 -63 216 -224
187 -368 -24 -115 -91 -200 -199 -251 -74 -35 -200 -36 -274 -3 -70 31 -140
102 -173 175 -40 86 -41 195 -2 279 81 174 288 249 461 168z m383 -304 c79
-166 80 -338 2 -508 l-31 -67 -63 58 c-35 32 -83 68 -107 81 l-43 23 60 62
c97 98 151 233 144 361 -2 35 -2 64 0 64 2 0 19 -33 38 -74z m-868 -439 c-26
-15 -51 -27 -55 -27 -9 -1 -18 41 -27 128 l-7 63 68 -68 68 -68 -47 -28z m643
-171 c99 -78 173 -217 180 -342 l3 -49 -54 -33 c-115 -69 -236 -102 -397 -109
-131 -6 -201 3 -315 39 -78 25 -80 32 -52 129 67 231 290 405 524 408 50 1 60
-3 111 -43z m-2850 -36 c272 -39 557 -201 731 -419 183 -229 269 -470 269
-756 0 -267 -75 -495 -234 -715 -45 -61 -174 -192 -224 -228 l-33 -23 0 93 0
94 46 44 c172 169 284 418 300 674 4 57 4 115 0 129 -15 63 -87 87 -130 44
-21 -21 -24 -35 -29 -153 -6 -144 -24 -221 -82 -343 -36 -76 -107 -182 -142
-214 -20 -17 -21 -17 -54 14 -19 18 -105 90 -191 162 -151 124 -158 131 -158
166 0 32 7 41 58 81 72 57 135 151 164 243 22 68 23 88 23 387 0 304 -1 316
-22 356 -28 53 -79 102 -128 125 -36 17 -68 19 -301 19 -251 0 -263 1 -334 25
-40 14 -90 25 -110 25 -68 0 -110 -53 -110 -140 0 -27 -4 -50 -9 -50 -5 0 -40
-24 -78 -54 -50 -39 -73 -52 -84 -45 -8 5 -28 9 -46 9 -26 0 -40 -10 -80 -55
-96 -111 -172 -258 -216 -420 -18 -67 -21 -107 -22 -250 0 -154 3 -179 27
-265 49 -175 137 -332 252 -453 l56 -57 0 -91 0 -90 -22 12 c-42 23 -204 193
-255 269 -187 279 -252 603 -183 920 135 624 710 1019 1351 930z m-188 -370
l289 -5 29 -33 c27 -30 29 -38 29 -117 l0 -85 -345 0 -345 0 0 135 0 135 28
-13 c18 -8 123 -13 315 -17z m-474 -755 c30 -83 79 -153 150 -216 54 -48 61
-58 61 -91 0 -36 -6 -42 -132 -148 -154 -128 -142 -129 -187 15 -46 146 -56
216 -56 395 1 212 22 319 103 510 l27 65 6 -235 c5 -208 8 -242 28 -295z m819
213 c-3 -134 -5 -147 -33 -201 -53 -107 -166 -184 -285 -194 -46 -4 -76 0
-132 18 -62 19 -83 32 -134 84 -87 85 -104 135 -104 305 l0 130 346 0 346 0
-4 -142z m-242 -578 c-8 -50 -55 -90 -107 -90 -53 0 -99 42 -99 92 l0 33 106
0 106 0 -6 -35z m-274 -176 c54 -48 95 -64 170 -64 71 0 126 21 179 68 l35 31
150 -124 c108 -89 154 -134 166 -162 14 -30 18 -67 18 -180 l0 -141 -73 -31
c-195 -81 -397 -113 -583 -93 -129 14 -264 49 -363 93 l-71 32 0 149 c0 113 4
156 15 178 12 23 297 277 314 279 2 1 21 -15 43 -35z m3146 -103 c153 -45 292
-131 409 -254 129 -136 210 -312 234 -511 29 -231 -54 -501 -207 -674 l-42
-47 -11 45 c-7 25 -18 61 -26 81 -13 35 -13 38 22 89 41 61 75 136 98 213 14
50 15 59 1 85 -17 33 -34 42 -75 42 -37 0 -58 -25 -77 -91 -17 -57 -60 -149
-70 -149 -3 0 -33 24 -65 54 -33 29 -79 64 -103 77 l-44 23 57 56 c95 94 151
225 151 360 l1 65 24 -45 c13 -25 31 -67 41 -95 19 -59 45 -85 86 -85 33 0 78
39 78 68 0 30 -38 131 -71 191 -116 207 -304 338 -543 380 -271 48 -575 -84
-731 -319 -87 -132 -127 -265 -126 -425 0 -152 42 -286 129 -417 l25 -39 -22
-72 c-13 -40 -24 -76 -25 -81 -1 -5 -22 14 -47 42 -181 211 -251 520 -179 797
83 323 346 576 675 649 102 23 334 16 433 -13z m-163 -276 c157 -41 256 -169
258 -330 1 -136 -68 -247 -191 -307 -59 -29 -76 -33 -147 -33 -65 1 -91 6
-136 27 -79 36 -133 89 -171 166 -29 59 -33 76 -33 147 1 65 6 91 27 136 49
106 137 176 248 198 66 13 80 13 145 -4z m-413 -699 c34 -30 40 -39 28 -46 -8
-5 -35 -22 -60 -39 -25 -16 -48 -27 -51 -23 -11 11 -29 134 -29 193 l0 54 34
-51 c19 -28 54 -68 78 -88z m446 -141 c85 -20 148 -54 215 -115 94 -86 148
-192 163 -319 l6 -58 -91 -47 c-251 -130 -555 -131 -809 -3 -99 49 -103 59
-82 162 56 268 331 443 598 380z"/>
<path d="M2001 3204 c-32 -40 -26 -65 33 -139 30 -37 75 -108 101 -157 52 -99
77 -118 127 -97 61 25 62 71 7 176 -44 85 -141 218 -170 233 -34 19 -76 12
-98 -16z"/>
<path d="M4020 2670 c-17 -17 -20 -33 -20 -105 0 -78 2 -88 25 -110 31 -32 69
-32 100 0 22 21 25 33 25 103 0 65 -4 84 -21 106 -26 33 -79 36 -109 6z"/>
</g>
</svg>
